<svg xmlns="http://www.w3.org/2000/svg" width="1024" height="1024" fill="none" viewBox="0 0 1024 1024" id="minus-circle">
  <path fill="#000" fill-rule="evenodd" d="M662 524.5H362V499.5H662V524.5Z" clip-rule="evenodd"></path>
  <path fill="#000" fill-rule="evenodd" d="M512 737C636.264 737 737 636.264 737 512C737 387.736 636.264 287 512 287C387.736 287 287 387.736 287 512C287 636.264 387.736 737 512 737ZM512 762C650.071 762 762 650.071 762 512C762 373.929 650.071 262 512 262C373.929 262 262 373.929 262 512C262 650.071 373.929 762 512 762Z" clip-rule="evenodd"></path>
</svg>
