<!DOCTYPE svg PUBLIC "-//W3C//DTD SVG 1.1//EN" "http://www.w3.org/Graphics/SVG/1.1/DTD/svg11.dtd">
<!-- Uploaded to: SVG Repo, www.svgrepo.com, Transformed by: SVG Repo Mixer Tools -->
<svg fill="#000000" width="800px" height="800px" viewBox="0 0 256 256" id="Flat" xmlns="http://www.w3.org/2000/svg" stroke="#000000">
<g id="SVGRepo_bgCarrier" stroke-width="0"/>
<g id="SVGRepo_tracerCarrier" stroke-linecap="round" stroke-linejoin="round"/>
<g id="SVGRepo_iconCarrier"> <path d="M226.82813,61.17163l-32-31.99976a3.99854,3.99854,0,0,0-5.65625,0l-96,95.99976A4.00065,4.00065,0,0,0,92,128v32a4.0002,4.0002,0,0,0,4,4h32a4,4,0,0,0,2.82813-1.17139l96-96.00024A3.99913,3.99913,0,0,0,226.82813,61.17163ZM126.34277,156H100V129.65674l68.00012-68,26.343,26.34277Zm73.65686-73.65674L173.65662,56,192,37.65674,218.34277,64ZM220,120v88a12.01343,12.01343,0,0,1-12,12H48a12.01343,12.01343,0,0,1-12-12V48A12.01343,12.01343,0,0,1,48,36h88a4,4,0,0,1,0,8H48a4.00427,4.00427,0,0,0-4,4V208a4.00427,4.00427,0,0,0,4,4H208a4.00427,4.00427,0,0,0,4-4V120a4,4,0,0,1,8,0Z"/> </g>
</svg>